# File created by Blade
# Date/Time:  Tue Sep 23 19:22:32 2014
# Frame Rate: 120.000 fps
#------------------------------------------------------
:FULLY-SPECIFIED
:DEGREES
1742
root 3.972022 34.501628 2.326069 139.779033 -21.032939 -43.015016
Spine -76.628916 -8.966273 22.464140
Head -13.573521 25.010291 42.553704
LeftShoulder -24.639898 34.362536 37.380387
LeftArm 141.260633 -73.596538 -168.961079
LeftForeArm 39.288540 -0.000000 116.785759
LeftHand 19.750334 -0.000000 27.402870
LeftHandThumb1 -26.253704 0.000000 33.147579
RightShoulder -41.836999 -40.862603 -4.266769
RightArm 22.827657 60.631338 68.957315
RightForeArm 76.182135 -0.000000 -0.838078
RightHand 9.919854 -0.000000 15.733513
RightHandThumb1 -24.326973 -0.000000 -32.862282
LeftUpLeg -129.126556 34.374865 -15.161754
LeftLeg 8.009754 -0.000000 -0.000000
LeftFoot -1.886054 16.408231 6.878231
LeftToeBase 2.762882 -0.000000 -0.000000
RightUpLeg 6.657272 0.793511 -26.115778
RightLeg 74.279988 -0.000000 -0.000000
RightFoot 46.299808 20.772192 -3.980062
RightToeBase 21.200065 -0.000000 -0.000000
1743
root 3.982332 34.511104 2.322003 139.795967 -21.184273 -43.177947
Spine -76.728284 -8.929614 22.351667
Head -13.168176 24.942104 42.564806
LeftShoulder -24.595272 34.375780 37.381575
LeftArm 140.475159 -73.747194 -168.428331
LeftForeArm 40.731455 -0.000000 116.609868
LeftHand 19.145830 -0.000000 27.740156
LeftHandThumb1 -26.253704 0.000000 33.147579
RightShoulder -41.915967 -40.988305 -4.163694
RightArm 23.095067 60.466242 68.931298
RightForeArm 76.404981 -0.000000 -1.109264
RightHand 9.983738 0.000000 15.806700
RightHandThumb1 -24.326973 -0.000000 -32.862282
LeftUpLeg -129.088907 34.459566 -15.306166
LeftLeg 8.159700 -0.000000 -0.000000
LeftFoot -2.274996 16.189768 6.047898
LeftToeBase 2.841119 -0.000000 -0.000000
RightUpLeg 6.721119 0.919039 -26.185834
RightLeg 74.076827 -0.000000 -0.000000
RightFoot 46.337510 20.858703 -3.887394
RightToeBase 21.033592 -0.000000 -0.000000
1744
root 3.989266 34.519824 2.321148 139.816759 -21.354951 -43.302302
Spine -76.893211 -8.910915 22.290982
Head -12.684379 24.882468 42.600135
LeftShoulder -24.642248 34.402886 37.290928
LeftArm 139.318548 -73.796114 -167.416963
LeftForeArm 42.455889 -0.000000 116.451027
LeftHand 18.221559 -0.000000 28.304740
LeftHandThumb1 -26.253704 0.000000 33.147579
RightShoulder -41.908032 -41.014094 -4.246058
RightArm 23.102872 60.164068 68.663969
RightForeArm 76.652646 -0.000000 -1.425305
RightHand 10.043753 -0.000000 15.820278
RightHandThumb1 -24.326973 -0.000000 -32.862282
LeftUpLeg -129.037578 34.496982 -15.435736
LeftLeg 8.250189 -0.000000 -0.000000
LeftFoot -2.584215 15.985000 5.372920
LeftToeBase 3.001226 -0.000000 -0.000000
RightUpLeg 6.792718 0.941616 -26.249431
RightLeg 73.847002 -0.000000 -0.000000
RightFoot 46.375276 20.885776 -3.793534
RightToeBase 21.025449 -0.000000 -0.000000
1745
root 3.996203 34.528678 2.321786 139.802726 -21.543960 -43.419657
Spine -77.020595 -8.917876 22.218473
Head -12.263828 24.816923 42.635125
LeftShoulder -24.737512 34.473284 37.077300
LeftArm 138.680850 -73.872122 -166.845832
LeftForeArm 43.911866 -0.000000 116.256040
LeftHand 17.562310 -0.000000 28.662431
LeftHandThumb1 -26.253704 0.000000 33.147579
RightShoulder -41.984294 -41.043017 -4.214471
RightArm 23.194453 59.936296 68.449661
RightForeArm 76.902675 0.000000 -1.703894
RightHand 10.090742 -0.000000 15.930171
RightHandThumb1 -24.326973 -0.000000 -32.862282
LeftUpLeg -128.977066 34.459619 -15.656227
LeftLeg 8.300195 -0.000000 -0.000000
LeftFoot -2.893026 15.699699 4.732625
LeftToeBase 3.245773 -0.000000 -0.000000
RightUpLeg 6.905432 0.952080 -26.306675
RightLeg 73.600879 -0.000000 -0.000000
RightFoot 46.428321 20.937771 -3.688082
RightToeBase 20.982143 -0.000000 -0.000000
